<?xml version="1.0" standalone="no"?>
<!DOCTYPE svg PUBLIC "-//W3C//DTD SVG 20010904//EN"
 "http://www.w3.org/TR/2001/REC-SVG-20010904/DTD/svg10.dtd">
<svg version="1.0" xmlns="http://www.w3.org/2000/svg"
 width="512.000000pt" height="512.000000pt" viewBox="0 0 512.000000 512.000000"
 preserveAspectRatio="xMidYMid meet">
<metadata>
Created by potrace 1.11, written by Peter Selinger 2001-2013
</metadata>
<g transform="translate(0.000000,512.000000) scale(0.100000,-0.100000)"
fill="#000000" stroke="none">
<path d="M2039 5112 c-29 -13 -68 -49 -78 -73 -11 -26 -107 -368 -117 -417 -1
-7 -9 -36 -18 -65 -15 -51 -244 -888 -251 -917 -8 -37 -127 -465 -130 -468 -1
-2 -139 65 -305 148 -176 88 -319 153 -341 156 -26 3 -51 -2 -78 -16 -35 -17
-74 -71 -300 -411 -144 -215 -261 -393 -262 -397 -12 -79 11 -138 67 -173 l39
-24 407 -1 c224 0 410 -3 414 -6 3 -4 40 -107 80 -230 46 -135 83 -232 97
-246 48 -53 36 -52 755 -52 l669 0 955 -954 c839 -839 959 -955 991 -961 76
-14 141 15 174 78 15 29 17 109 17 912 0 824 -1 882 -18 917 -15 30 -118 108
-614 463 -328 234 -598 430 -600 434 -1 4 303 313 676 687 720 720 712 711
698 789 -7 37 -45 88 -80 108 -16 9 -181 13 -659 17 l-639 5 230 230 c126 127
237 244 246 262 22 44 20 81 -6 133 -45 86 34 80 -1048 79 -525 0 -962 -3
-971 -7z"/>
</g>
</svg>
